<mxfile host="app.diagrams.net" modified="2024-01-06T19:10:31.185Z" agent="Mozilla/5.0 (Windows NT 10.0; Win64; x64) AppleWebKit/537.36 (KHTML, like Gecko) Chrome/120.0.0.0 Safari/537.36" etag="QYIwtjT1c-TJ0wLMmWYI" version="22.1.17" type="device">
  <diagram id="C5RBs43oDa-KdzZeNtuy" name="Page-1">
    <mxGraphModel dx="1615" dy="888" grid="1" gridSize="10" guides="1" tooltips="1" connect="1" arrows="1" fold="1" page="1" pageScale="1" pageWidth="827" pageHeight="1169" math="0" shadow="0">
      <root>
        <mxCell id="WIyWlLk6GJQsqaUBKTNV-0" />
        <mxCell id="WIyWlLk6GJQsqaUBKTNV-1" parent="WIyWlLk6GJQsqaUBKTNV-0" />
        <mxCell id="7qGKscGNT5ev0cK7DHyf-0" value="Auteur&lt;br&gt;" style="shape=umlActor;verticalLabelPosition=bottom;verticalAlign=top;html=1;" vertex="1" parent="WIyWlLk6GJQsqaUBKTNV-1">
          <mxGeometry x="30" y="110" width="30" height="60" as="geometry" />
        </mxCell>
        <mxCell id="7qGKscGNT5ev0cK7DHyf-1" value="Admin" style="shape=umlActor;verticalLabelPosition=bottom;verticalAlign=top;html=1;" vertex="1" parent="WIyWlLk6GJQsqaUBKTNV-1">
          <mxGeometry x="30" y="350" width="30" height="60" as="geometry" />
        </mxCell>
        <mxCell id="7qGKscGNT5ev0cK7DHyf-2" value="Authontification" style="ellipse;whiteSpace=wrap;html=1;fillColor=#d5e8d4;strokeColor=#82b366;" vertex="1" parent="WIyWlLk6GJQsqaUBKTNV-1">
          <mxGeometry x="660" y="530" width="150" height="60" as="geometry" />
        </mxCell>
        <mxCell id="7qGKscGNT5ev0cK7DHyf-6" value="operation Wiki" style="ellipse;whiteSpace=wrap;html=1;" vertex="1" parent="WIyWlLk6GJQsqaUBKTNV-1">
          <mxGeometry x="122" y="99" width="142.5" height="60" as="geometry" />
        </mxCell>
        <mxCell id="7qGKscGNT5ev0cK7DHyf-7" value="creÃ©" style="ellipse;whiteSpace=wrap;html=1;" vertex="1" parent="WIyWlLk6GJQsqaUBKTNV-1">
          <mxGeometry x="343" y="9" width="131.25" height="50" as="geometry" />
        </mxCell>
        <mxCell id="7qGKscGNT5ev0cK7DHyf-8" value="Modification" style="ellipse;whiteSpace=wrap;html=1;" vertex="1" parent="WIyWlLk6GJQsqaUBKTNV-1">
          <mxGeometry x="343" y="90" width="131.25" height="50" as="geometry" />
        </mxCell>
        <mxCell id="7qGKscGNT5ev0cK7DHyf-9" value="suppression" style="ellipse;whiteSpace=wrap;html=1;" vertex="1" parent="WIyWlLk6GJQsqaUBKTNV-1">
          <mxGeometry x="343" y="159" width="131.25" height="50" as="geometry" />
        </mxCell>
        <mxCell id="7qGKscGNT5ev0cK7DHyf-14" style="rounded=0;orthogonalLoop=1;jettySize=auto;html=1;entryX=0;entryY=0.5;entryDx=0;entryDy=0;entryPerimeter=0;" edge="1" parent="WIyWlLk6GJQsqaUBKTNV-1" target="7qGKscGNT5ev0cK7DHyf-6">
          <mxGeometry relative="1" as="geometry">
            <mxPoint x="50" y="150" as="sourcePoint" />
          </mxGeometry>
        </mxCell>
        <mxCell id="7qGKscGNT5ev0cK7DHyf-15" value="" style="endArrow=none;html=1;rounded=0;exitX=1;exitY=0;exitDx=0;exitDy=0;entryX=-0.024;entryY=0.652;entryDx=0;entryDy=0;entryPerimeter=0;dashed=1;startArrow=open;startFill=0;endFill=0;" edge="1" parent="WIyWlLk6GJQsqaUBKTNV-1" target="7qGKscGNT5ev0cK7DHyf-7">
          <mxGeometry width="50" height="50" relative="1" as="geometry">
            <mxPoint x="244.54273680261053" y="107.74954782988289" as="sourcePoint" />
            <mxPoint x="375.5" y="39" as="targetPoint" />
          </mxGeometry>
        </mxCell>
        <mxCell id="7qGKscGNT5ev0cK7DHyf-16" value="extend" style="edgeLabel;html=1;align=center;verticalAlign=middle;resizable=0;points=[];" vertex="1" connectable="0" parent="7qGKscGNT5ev0cK7DHyf-15">
          <mxGeometry x="0.054" y="1" relative="1" as="geometry">
            <mxPoint as="offset" />
          </mxGeometry>
        </mxCell>
        <mxCell id="7qGKscGNT5ev0cK7DHyf-17" value="" style="endArrow=none;html=1;rounded=0;exitX=1;exitY=1;exitDx=0;exitDy=0;entryX=0;entryY=0.5;entryDx=0;entryDy=0;dashed=1;startArrow=open;startFill=0;endFill=0;" edge="1" parent="WIyWlLk6GJQsqaUBKTNV-1" target="7qGKscGNT5ev0cK7DHyf-9">
          <mxGeometry width="50" height="50" relative="1" as="geometry">
            <mxPoint x="244.54273680261053" y="150.25045217011711" as="sourcePoint" />
            <mxPoint x="393" y="199" as="targetPoint" />
          </mxGeometry>
        </mxCell>
        <mxCell id="7qGKscGNT5ev0cK7DHyf-18" value="extend" style="edgeLabel;html=1;align=center;verticalAlign=middle;resizable=0;points=[];" vertex="1" connectable="0" parent="7qGKscGNT5ev0cK7DHyf-17">
          <mxGeometry x="0.054" y="1" relative="1" as="geometry">
            <mxPoint as="offset" />
          </mxGeometry>
        </mxCell>
        <mxCell id="7qGKscGNT5ev0cK7DHyf-19" value="" style="endArrow=none;html=1;rounded=0;exitX=1;exitY=0.5;exitDx=0;exitDy=0;entryX=0;entryY=0.5;entryDx=0;entryDy=0;dashed=1;startArrow=open;startFill=0;endFill=0;" edge="1" parent="WIyWlLk6GJQsqaUBKTNV-1" target="7qGKscGNT5ev0cK7DHyf-8">
          <mxGeometry width="50" height="50" relative="1" as="geometry">
            <mxPoint x="265.5" y="129" as="sourcePoint" />
            <mxPoint x="410.5" y="79" as="targetPoint" />
          </mxGeometry>
        </mxCell>
        <mxCell id="7qGKscGNT5ev0cK7DHyf-20" value="extend" style="edgeLabel;html=1;align=center;verticalAlign=middle;resizable=0;points=[];" vertex="1" connectable="0" parent="7qGKscGNT5ev0cK7DHyf-19">
          <mxGeometry x="0.054" y="1" relative="1" as="geometry">
            <mxPoint as="offset" />
          </mxGeometry>
        </mxCell>
        <mxCell id="7qGKscGNT5ev0cK7DHyf-21" value="recherche&lt;br&gt;" style="ellipse;whiteSpace=wrap;html=1;" vertex="1" parent="WIyWlLk6GJQsqaUBKTNV-1">
          <mxGeometry x="128.25" y="330" width="130" height="60" as="geometry" />
        </mxCell>
        <mxCell id="7qGKscGNT5ev0cK7DHyf-22" value="" style="endArrow=classic;html=1;rounded=0;exitX=0.533;exitY=0.677;exitDx=0;exitDy=0;exitPerimeter=0;entryX=0;entryY=0;entryDx=0;entryDy=0;" edge="1" parent="WIyWlLk6GJQsqaUBKTNV-1" source="7qGKscGNT5ev0cK7DHyf-0" target="7qGKscGNT5ev0cK7DHyf-21">
          <mxGeometry width="50" height="50" relative="1" as="geometry">
            <mxPoint x="200" y="240" as="sourcePoint" />
            <mxPoint x="120" y="210" as="targetPoint" />
          </mxGeometry>
        </mxCell>
        <mxCell id="7qGKscGNT5ev0cK7DHyf-23" value="statiqtique" style="ellipse;whiteSpace=wrap;html=1;" vertex="1" parent="WIyWlLk6GJQsqaUBKTNV-1">
          <mxGeometry x="128.25" y="220" width="130" height="60" as="geometry" />
        </mxCell>
        <mxCell id="7qGKscGNT5ev0cK7DHyf-24" value="" style="endArrow=classic;html=1;rounded=0;entryX=0;entryY=0.5;entryDx=0;entryDy=0;" edge="1" parent="WIyWlLk6GJQsqaUBKTNV-1" target="7qGKscGNT5ev0cK7DHyf-23">
          <mxGeometry width="50" height="50" relative="1" as="geometry">
            <mxPoint x="60" y="160" as="sourcePoint" />
            <mxPoint x="90" y="250" as="targetPoint" />
          </mxGeometry>
        </mxCell>
        <mxCell id="7qGKscGNT5ev0cK7DHyf-25" value="" style="endArrow=classic;html=1;rounded=0;exitX=0.5;exitY=0.5;exitDx=0;exitDy=0;exitPerimeter=0;entryX=-0.012;entryY=0.683;entryDx=0;entryDy=0;entryPerimeter=0;" edge="1" parent="WIyWlLk6GJQsqaUBKTNV-1" source="7qGKscGNT5ev0cK7DHyf-1" target="7qGKscGNT5ev0cK7DHyf-23">
          <mxGeometry width="50" height="50" relative="1" as="geometry">
            <mxPoint x="390" y="400" as="sourcePoint" />
            <mxPoint x="440" y="350" as="targetPoint" />
          </mxGeometry>
        </mxCell>
        <mxCell id="7qGKscGNT5ev0cK7DHyf-27" value="" style="endArrow=classic;html=1;rounded=0;entryX=0.049;entryY=0.697;entryDx=0;entryDy=0;entryPerimeter=0;exitX=0.667;exitY=0.667;exitDx=0;exitDy=0;exitPerimeter=0;" edge="1" parent="WIyWlLk6GJQsqaUBKTNV-1" source="7qGKscGNT5ev0cK7DHyf-1" target="7qGKscGNT5ev0cK7DHyf-21">
          <mxGeometry width="50" height="50" relative="1" as="geometry">
            <mxPoint x="80" y="420" as="sourcePoint" />
            <mxPoint x="130" y="370" as="targetPoint" />
          </mxGeometry>
        </mxCell>
        <mxCell id="7qGKscGNT5ev0cK7DHyf-65" style="rounded=0;orthogonalLoop=1;jettySize=auto;html=1;exitX=1;exitY=0.5;exitDx=0;exitDy=0;dashed=1;" edge="1" parent="WIyWlLk6GJQsqaUBKTNV-1" source="7qGKscGNT5ev0cK7DHyf-28" target="7qGKscGNT5ev0cK7DHyf-2">
          <mxGeometry relative="1" as="geometry" />
        </mxCell>
        <mxCell id="7qGKscGNT5ev0cK7DHyf-66" value="include" style="edgeLabel;html=1;align=center;verticalAlign=middle;resizable=0;points=[];" vertex="1" connectable="0" parent="7qGKscGNT5ev0cK7DHyf-65">
          <mxGeometry x="0.0095" y="-4" relative="1" as="geometry">
            <mxPoint as="offset" />
          </mxGeometry>
        </mxCell>
        <mxCell id="7qGKscGNT5ev0cK7DHyf-28" value="archiver&lt;br&gt;" style="ellipse;whiteSpace=wrap;html=1;" vertex="1" parent="WIyWlLk6GJQsqaUBKTNV-1">
          <mxGeometry x="128.25" y="470" width="130" height="60" as="geometry" />
        </mxCell>
        <mxCell id="7qGKscGNT5ev0cK7DHyf-67" style="edgeStyle=orthogonalEdgeStyle;rounded=0;orthogonalLoop=1;jettySize=auto;html=1;exitX=0.5;exitY=0;exitDx=0;exitDy=0;entryX=0;entryY=1;entryDx=0;entryDy=0;dashed=1;" edge="1" parent="WIyWlLk6GJQsqaUBKTNV-1" source="7qGKscGNT5ev0cK7DHyf-29" target="7qGKscGNT5ev0cK7DHyf-2">
          <mxGeometry relative="1" as="geometry" />
        </mxCell>
        <mxCell id="7qGKscGNT5ev0cK7DHyf-69" value="include" style="edgeLabel;html=1;align=center;verticalAlign=middle;resizable=0;points=[];" vertex="1" connectable="0" parent="7qGKscGNT5ev0cK7DHyf-67">
          <mxGeometry x="0.3189" y="2" relative="1" as="geometry">
            <mxPoint as="offset" />
          </mxGeometry>
        </mxCell>
        <mxCell id="7qGKscGNT5ev0cK7DHyf-29" value="operation Tags" style="ellipse;whiteSpace=wrap;html=1;" vertex="1" parent="WIyWlLk6GJQsqaUBKTNV-1">
          <mxGeometry x="120" y="790" width="130" height="60" as="geometry" />
        </mxCell>
        <mxCell id="7qGKscGNT5ev0cK7DHyf-30" value="Operation CatÃ©gorie&amp;nbsp;&lt;br&gt;" style="ellipse;whiteSpace=wrap;html=1;" vertex="1" parent="WIyWlLk6GJQsqaUBKTNV-1">
          <mxGeometry x="120" y="1033" width="130" height="60" as="geometry" />
        </mxCell>
        <mxCell id="7qGKscGNT5ev0cK7DHyf-31" value="creÃ©" style="ellipse;whiteSpace=wrap;html=1;" vertex="1" parent="WIyWlLk6GJQsqaUBKTNV-1">
          <mxGeometry x="350.46" y="700" width="131.25" height="50" as="geometry" />
        </mxCell>
        <mxCell id="7qGKscGNT5ev0cK7DHyf-32" value="Modification" style="ellipse;whiteSpace=wrap;html=1;" vertex="1" parent="WIyWlLk6GJQsqaUBKTNV-1">
          <mxGeometry x="350.46" y="781" width="131.25" height="50" as="geometry" />
        </mxCell>
        <mxCell id="7qGKscGNT5ev0cK7DHyf-33" value="suppression" style="ellipse;whiteSpace=wrap;html=1;" vertex="1" parent="WIyWlLk6GJQsqaUBKTNV-1">
          <mxGeometry x="350.46" y="850" width="131.25" height="50" as="geometry" />
        </mxCell>
        <mxCell id="7qGKscGNT5ev0cK7DHyf-34" value="" style="endArrow=none;html=1;rounded=0;exitX=1;exitY=0;exitDx=0;exitDy=0;entryX=-0.024;entryY=0.652;entryDx=0;entryDy=0;entryPerimeter=0;dashed=1;startArrow=open;startFill=0;endFill=0;" edge="1" target="7qGKscGNT5ev0cK7DHyf-31" parent="WIyWlLk6GJQsqaUBKTNV-1" source="7qGKscGNT5ev0cK7DHyf-29">
          <mxGeometry width="50" height="50" relative="1" as="geometry">
            <mxPoint x="252.0027368026105" y="798.7495478298829" as="sourcePoint" />
            <mxPoint x="382.96" y="730" as="targetPoint" />
          </mxGeometry>
        </mxCell>
        <mxCell id="7qGKscGNT5ev0cK7DHyf-35" value="extend" style="edgeLabel;html=1;align=center;verticalAlign=middle;resizable=0;points=[];" vertex="1" connectable="0" parent="7qGKscGNT5ev0cK7DHyf-34">
          <mxGeometry x="0.054" y="1" relative="1" as="geometry">
            <mxPoint as="offset" />
          </mxGeometry>
        </mxCell>
        <mxCell id="7qGKscGNT5ev0cK7DHyf-36" value="" style="endArrow=none;html=1;rounded=0;exitX=1;exitY=1;exitDx=0;exitDy=0;entryX=0;entryY=0.5;entryDx=0;entryDy=0;dashed=1;startArrow=open;startFill=0;endFill=0;" edge="1" target="7qGKscGNT5ev0cK7DHyf-33" parent="WIyWlLk6GJQsqaUBKTNV-1" source="7qGKscGNT5ev0cK7DHyf-29">
          <mxGeometry width="50" height="50" relative="1" as="geometry">
            <mxPoint x="252.0027368026105" y="841.2504521701171" as="sourcePoint" />
            <mxPoint x="400.46" y="890" as="targetPoint" />
          </mxGeometry>
        </mxCell>
        <mxCell id="7qGKscGNT5ev0cK7DHyf-37" value="extend" style="edgeLabel;html=1;align=center;verticalAlign=middle;resizable=0;points=[];" vertex="1" connectable="0" parent="7qGKscGNT5ev0cK7DHyf-36">
          <mxGeometry x="0.054" y="1" relative="1" as="geometry">
            <mxPoint as="offset" />
          </mxGeometry>
        </mxCell>
        <mxCell id="7qGKscGNT5ev0cK7DHyf-38" value="" style="endArrow=none;html=1;rounded=0;exitX=1;exitY=0.5;exitDx=0;exitDy=0;entryX=0;entryY=0.5;entryDx=0;entryDy=0;dashed=1;startArrow=open;startFill=0;endFill=0;" edge="1" target="7qGKscGNT5ev0cK7DHyf-32" parent="WIyWlLk6GJQsqaUBKTNV-1" source="7qGKscGNT5ev0cK7DHyf-29">
          <mxGeometry width="50" height="50" relative="1" as="geometry">
            <mxPoint x="272.96" y="820" as="sourcePoint" />
            <mxPoint x="417.96000000000004" y="770" as="targetPoint" />
          </mxGeometry>
        </mxCell>
        <mxCell id="7qGKscGNT5ev0cK7DHyf-39" value="extend" style="edgeLabel;html=1;align=center;verticalAlign=middle;resizable=0;points=[];" vertex="1" connectable="0" parent="7qGKscGNT5ev0cK7DHyf-38">
          <mxGeometry x="0.054" y="1" relative="1" as="geometry">
            <mxPoint as="offset" />
          </mxGeometry>
        </mxCell>
        <mxCell id="7qGKscGNT5ev0cK7DHyf-45" value="creÃ©" style="ellipse;whiteSpace=wrap;html=1;" vertex="1" parent="WIyWlLk6GJQsqaUBKTNV-1">
          <mxGeometry x="350.46" y="953" width="131.25" height="50" as="geometry" />
        </mxCell>
        <mxCell id="7qGKscGNT5ev0cK7DHyf-46" value="Modification" style="ellipse;whiteSpace=wrap;html=1;" vertex="1" parent="WIyWlLk6GJQsqaUBKTNV-1">
          <mxGeometry x="350.46" y="1034" width="131.25" height="50" as="geometry" />
        </mxCell>
        <mxCell id="7qGKscGNT5ev0cK7DHyf-47" value="suppression" style="ellipse;whiteSpace=wrap;html=1;" vertex="1" parent="WIyWlLk6GJQsqaUBKTNV-1">
          <mxGeometry x="350.46" y="1103" width="131.25" height="50" as="geometry" />
        </mxCell>
        <mxCell id="7qGKscGNT5ev0cK7DHyf-48" value="" style="endArrow=none;html=1;rounded=0;exitX=0.925;exitY=0.199;exitDx=0;exitDy=0;entryX=-0.024;entryY=0.652;entryDx=0;entryDy=0;entryPerimeter=0;dashed=1;startArrow=open;startFill=0;endFill=0;exitPerimeter=0;" edge="1" target="7qGKscGNT5ev0cK7DHyf-45" parent="WIyWlLk6GJQsqaUBKTNV-1" source="7qGKscGNT5ev0cK7DHyf-30">
          <mxGeometry width="50" height="50" relative="1" as="geometry">
            <mxPoint x="252.00273680261054" y="1051.7495478298829" as="sourcePoint" />
            <mxPoint x="382.96" y="983" as="targetPoint" />
          </mxGeometry>
        </mxCell>
        <mxCell id="7qGKscGNT5ev0cK7DHyf-49" value="extend" style="edgeLabel;html=1;align=center;verticalAlign=middle;resizable=0;points=[];" vertex="1" connectable="0" parent="7qGKscGNT5ev0cK7DHyf-48">
          <mxGeometry x="0.054" y="1" relative="1" as="geometry">
            <mxPoint as="offset" />
          </mxGeometry>
        </mxCell>
        <mxCell id="7qGKscGNT5ev0cK7DHyf-50" value="" style="endArrow=none;html=1;rounded=0;exitX=0.91;exitY=0.869;exitDx=0;exitDy=0;entryX=0;entryY=0.5;entryDx=0;entryDy=0;dashed=1;startArrow=open;startFill=0;endFill=0;exitPerimeter=0;" edge="1" target="7qGKscGNT5ev0cK7DHyf-47" parent="WIyWlLk6GJQsqaUBKTNV-1" source="7qGKscGNT5ev0cK7DHyf-30">
          <mxGeometry width="50" height="50" relative="1" as="geometry">
            <mxPoint x="252.00273680261054" y="1094.2504521701171" as="sourcePoint" />
            <mxPoint x="400.46000000000004" y="1143" as="targetPoint" />
          </mxGeometry>
        </mxCell>
        <mxCell id="7qGKscGNT5ev0cK7DHyf-51" value="extend" style="edgeLabel;html=1;align=center;verticalAlign=middle;resizable=0;points=[];" vertex="1" connectable="0" parent="7qGKscGNT5ev0cK7DHyf-50">
          <mxGeometry x="0.054" y="1" relative="1" as="geometry">
            <mxPoint as="offset" />
          </mxGeometry>
        </mxCell>
        <mxCell id="7qGKscGNT5ev0cK7DHyf-52" value="" style="endArrow=none;html=1;rounded=0;exitX=0.976;exitY=0.652;exitDx=0;exitDy=0;entryX=0;entryY=0.5;entryDx=0;entryDy=0;dashed=1;startArrow=open;startFill=0;endFill=0;exitPerimeter=0;" edge="1" target="7qGKscGNT5ev0cK7DHyf-46" parent="WIyWlLk6GJQsqaUBKTNV-1" source="7qGKscGNT5ev0cK7DHyf-30">
          <mxGeometry width="50" height="50" relative="1" as="geometry">
            <mxPoint x="272.96" y="1073" as="sourcePoint" />
            <mxPoint x="417.96000000000004" y="1023" as="targetPoint" />
          </mxGeometry>
        </mxCell>
        <mxCell id="7qGKscGNT5ev0cK7DHyf-53" value="extend" style="edgeLabel;html=1;align=center;verticalAlign=middle;resizable=0;points=[];" vertex="1" connectable="0" parent="7qGKscGNT5ev0cK7DHyf-52">
          <mxGeometry x="0.054" y="1" relative="1" as="geometry">
            <mxPoint as="offset" />
          </mxGeometry>
        </mxCell>
        <mxCell id="7qGKscGNT5ev0cK7DHyf-54" value="" style="endArrow=classic;html=1;rounded=0;entryX=-0.004;entryY=0.351;entryDx=0;entryDy=0;entryPerimeter=0;" edge="1" parent="WIyWlLk6GJQsqaUBKTNV-1" source="7qGKscGNT5ev0cK7DHyf-1" target="7qGKscGNT5ev0cK7DHyf-28">
          <mxGeometry width="50" height="50" relative="1" as="geometry">
            <mxPoint x="60" y="490" as="sourcePoint" />
            <mxPoint x="110" y="440" as="targetPoint" />
          </mxGeometry>
        </mxCell>
        <mxCell id="7qGKscGNT5ev0cK7DHyf-55" value="" style="endArrow=classic;html=1;rounded=0;exitX=0.602;exitY=0.783;exitDx=0;exitDy=0;exitPerimeter=0;entryX=0.086;entryY=0.13;entryDx=0;entryDy=0;entryPerimeter=0;" edge="1" parent="WIyWlLk6GJQsqaUBKTNV-1" source="7qGKscGNT5ev0cK7DHyf-1" target="7qGKscGNT5ev0cK7DHyf-29">
          <mxGeometry width="50" height="50" relative="1" as="geometry">
            <mxPoint x="70" y="560" as="sourcePoint" />
            <mxPoint x="120" y="510" as="targetPoint" />
          </mxGeometry>
        </mxCell>
        <mxCell id="7qGKscGNT5ev0cK7DHyf-56" value="" style="endArrow=classic;html=1;rounded=0;exitX=0.219;exitY=0.901;exitDx=0;exitDy=0;exitPerimeter=0;entryX=0.22;entryY=0.003;entryDx=0;entryDy=0;entryPerimeter=0;" edge="1" parent="WIyWlLk6GJQsqaUBKTNV-1" source="7qGKscGNT5ev0cK7DHyf-1" target="7qGKscGNT5ev0cK7DHyf-30">
          <mxGeometry width="50" height="50" relative="1" as="geometry">
            <mxPoint x="70" y="621" as="sourcePoint" />
            <mxPoint x="120" y="571" as="targetPoint" />
          </mxGeometry>
        </mxCell>
        <mxCell id="7qGKscGNT5ev0cK7DHyf-58" value="" style="endArrow=classic;html=1;rounded=0;entryX=0.5;entryY=0;entryDx=0;entryDy=0;dashed=1;" edge="1" parent="WIyWlLk6GJQsqaUBKTNV-1" source="7qGKscGNT5ev0cK7DHyf-6" target="7qGKscGNT5ev0cK7DHyf-2">
          <mxGeometry width="50" height="50" relative="1" as="geometry">
            <mxPoint x="580" y="635" as="sourcePoint" />
            <mxPoint x="630" y="585" as="targetPoint" />
          </mxGeometry>
        </mxCell>
        <mxCell id="7qGKscGNT5ev0cK7DHyf-59" value="include" style="edgeLabel;html=1;align=center;verticalAlign=middle;resizable=0;points=[];" vertex="1" connectable="0" parent="7qGKscGNT5ev0cK7DHyf-58">
          <mxGeometry x="0.0039" y="-4" relative="1" as="geometry">
            <mxPoint y="1" as="offset" />
          </mxGeometry>
        </mxCell>
        <mxCell id="7qGKscGNT5ev0cK7DHyf-60" value="" style="endArrow=classic;html=1;rounded=0;dashed=1;" edge="1" parent="WIyWlLk6GJQsqaUBKTNV-1" target="7qGKscGNT5ev0cK7DHyf-2">
          <mxGeometry width="50" height="50" relative="1" as="geometry">
            <mxPoint x="249.71" y="260.2" as="sourcePoint" />
            <mxPoint x="706.71" y="643.2" as="targetPoint" />
          </mxGeometry>
        </mxCell>
        <mxCell id="7qGKscGNT5ev0cK7DHyf-61" value="include" style="edgeLabel;html=1;align=center;verticalAlign=middle;resizable=0;points=[];" vertex="1" connectable="0" parent="7qGKscGNT5ev0cK7DHyf-60">
          <mxGeometry x="0.0039" y="-4" relative="1" as="geometry">
            <mxPoint y="1" as="offset" />
          </mxGeometry>
        </mxCell>
        <mxCell id="7qGKscGNT5ev0cK7DHyf-62" value="" style="endArrow=classic;html=1;rounded=0;dashed=1;" edge="1" parent="WIyWlLk6GJQsqaUBKTNV-1">
          <mxGeometry width="50" height="50" relative="1" as="geometry">
            <mxPoint x="250" y="357" as="sourcePoint" />
            <mxPoint x="650" y="550" as="targetPoint" />
          </mxGeometry>
        </mxCell>
        <mxCell id="7qGKscGNT5ev0cK7DHyf-63" value="include" style="edgeLabel;html=1;align=center;verticalAlign=middle;resizable=0;points=[];" vertex="1" connectable="0" parent="7qGKscGNT5ev0cK7DHyf-62">
          <mxGeometry x="0.0039" y="-4" relative="1" as="geometry">
            <mxPoint y="1" as="offset" />
          </mxGeometry>
        </mxCell>
        <mxCell id="7qGKscGNT5ev0cK7DHyf-68" style="edgeStyle=orthogonalEdgeStyle;rounded=0;orthogonalLoop=1;jettySize=auto;html=1;exitX=0.5;exitY=0;exitDx=0;exitDy=0;entryX=0.64;entryY=1.043;entryDx=0;entryDy=0;entryPerimeter=0;dashed=1;" edge="1" parent="WIyWlLk6GJQsqaUBKTNV-1" source="7qGKscGNT5ev0cK7DHyf-30" target="7qGKscGNT5ev0cK7DHyf-2">
          <mxGeometry relative="1" as="geometry">
            <Array as="points">
              <mxPoint x="190" y="1033" />
              <mxPoint x="190" y="910" />
              <mxPoint x="756" y="910" />
            </Array>
          </mxGeometry>
        </mxCell>
        <mxCell id="7qGKscGNT5ev0cK7DHyf-70" value="include" style="edgeLabel;html=1;align=center;verticalAlign=middle;resizable=0;points=[];" vertex="1" connectable="0" parent="7qGKscGNT5ev0cK7DHyf-68">
          <mxGeometry x="0.1414" y="-2" relative="1" as="geometry">
            <mxPoint x="1" as="offset" />
          </mxGeometry>
        </mxCell>
      </root>
    </mxGraphModel>
  </diagram>
</mxfile>
